<?xml version="1.0" encoding="UTF-8"?>
<svg id="Calque_1" data-name="Calque 1" xmlns="http://www.w3.org/2000/svg" viewBox="0 0 366.97 242.96">

  <g>
    <polygon  fill="#ee763b" class="cls-2" points="179.57 148.69 144.4 148.69 152.4 134.94 152.61 134.84 171.69 134.92 179.57 148.69"/>
    <g>
      <polygon fill="#333" class="cls-1" points="202.79 175.29 206.26 154.81 257.44 67.69 273.13 67.69 211.34 175.29 202.79 175.29"/>
      <path fill="#333"  class="cls-1" d="M76.37,175.29l63.07-107.6c.28-.06.18.12.27.27.78,1.34,1.46,2.82,2.18,4.21,1.53,2.98,3.01,6.01,4.52,9l-53.47,94.12h-16.57Z"/>
      <path fill="#333" class="cls-1" d="M125.25,175.29h-16.16l47.05-80.73c.13,0,.26.88.3,1.06,1.28,6.57,2.31,13.26,3.38,19.84l-34.57,59.83Z"/>
      <polygon fill="#333" class="cls-1" points="198.85 175.29 163.51 115.28 159.88 94.56 168.3 94.56 202.32 154.66 202.37 155.25 198.99 175.29 198.85 175.29"/>
      <path fill="#333" class="cls-1" d="M246.1,67.69l-36.05,59.84c-.39-2.52-.15-5.12-.2-7.67-.12-6.67-.44-13.36-.38-20.04l18.16-32.12h18.47Z"/>
      <path fill="#333" class="cls-1" d="M188.12,67.69l17.49,32.25c.07,9.21.39,18.39.43,27.58l-26.46-46.23,8.53-13.6Z"/>
      <polygon fill="#333" class="cls-1" points="183.37 67.69 175.07 80.91 174.62 81.13 150.33 81.1 143.45 67.69 183.37 67.69"/>
    </g>
  </g>
  <path  fill="#ee763b" class="cls-2" d="M290.96,121.48c.29,38.47-19.12,76.12-50.42,98.47-71.45,51.32-171.7,12.45-189.7-73.84-10.44-49.33,11.93-101.59,54.9-127.89,80.93-49.89,185.08,8.6,185.22,103.26h0ZM289.76,121.48c.44-45.52-28.85-89.15-71.08-106.07C143.44-15.66,60.13,40.04,60.33,121.48c-.18,81.45,83.11,137.14,158.35,106.07,42.23-16.92,71.52-60.55,71.08-106.07h0Z"/>
</svg>